<svg width="36" height="40" viewBox="0 0 36 40" fill="none" xmlns="http://www.w3.org/2000/svg">
<path d="M21.0275 35.75C20.7198 36.2804 20.2782 36.7206 19.7469 37.0267C19.2156 37.3327 18.6132 37.4938 18 37.4938C17.3868 37.4938 16.7844 37.3327 16.2531 37.0267C15.7218 36.7206 15.2802 36.2804 14.9725 35.75M28.5 13C28.5 10.2152 27.3938 7.54451 25.4246 5.57538C23.4555 3.60625 20.7848 2.5 18 2.5C15.2152 2.5 12.5445 3.60625 10.5754 5.57538C8.60625 7.54451 7.5 10.2152 7.5 13C7.5 25.25 2.25 28.75 2.25 28.75H33.75C33.75 28.75 28.5 25.25 28.5 13Z" stroke="#434343" stroke-width="4" stroke-linecap="round" stroke-linejoin="round"/>
</svg>
